PathFileType	4	(X/Y/Z)	OpenSim_Sub01_EMGBaseline_Gyro.trc
DataRate	CameraRate	NumFrames	NumMarkers	Units	OrigDataRate	OrigDataStartFrame	OrigNumFrames
100	100	34	8	m	100	6654	7604
Frame#	Time	torso_imu_offset_imu	pelvis_imu_offset_imu	tibia_r_imu_offset_imu	femur_r_imu_offset_imu	tibia_l_imu_offset_imu	femur_l_imu_offset_imu	toes_r_imu_offset_imu	toes_l_imu_offset_imu
				X1	Y1	Z1	X2	Y2	Z2	X3	Y3	Z3	X4	Y4	Z4	X5	Y5	Z5	X6	Y6	Z6	X7	Y7	Z7	X8		Y8	Z8	

6654	66.53000000	-0.38833846	-0.06534471	-0.18483711	-0.77447869	0.27442122	-0.43645315	0.42299764	0.41211884	-0.69703001	-1.18821732	0.08526257	2.59333687	-1.48326339	-0.06289762	0.73183410	0.03859268	-0.49724274	0.55173586	-1.28930548	-1.49980028	-0.99275040	-0.07424827	0.01141613	0.04627723
6655	66.54000000	-0.39463532	-0.08014988	-0.21467695	-0.72831574	0.23903377	-0.42923717	0.37401418	0.45952285	-0.56182957	-0.94730643	-0.00935782	2.48248721	-1.41043182	-0.06683138	0.71997971	-0.34529111	-0.47022478	0.65163459	-1.13093859	1.40172527	-0.56130147	-0.05302601	-0.00594586	0.02455046
6656	66.55000000	-0.40123263	-0.08604828	-0.23387050	-0.65921333	0.18481041	-0.37436645	0.08788758	0.23200737	-0.45705365	-0.72862287	-0.07848759	2.28322583	-1.04129172	-0.09723230	0.69901650	-0.67437788	-0.50128945	0.75701675	-0.45889128	3.31115931	-0.39571833	-0.03878502	-0.01748316	0.01880448
6657	66.56000000	-0.40728961	-0.08531358	-0.24072397	-0.57473282	0.12344167	-0.27946270	-0.36251369	-0.13373158	-0.28328429	-0.52932817	-0.11197530	2.04264732	-0.50072278	-0.14687356	0.67029680	-0.87575406	-0.59038569	0.82040822	0.47795766	3.98565180	-0.48582108	-0.02936039	-0.02526098	0.02673894
6658	66.57000000	-0.41413655	-0.08157479	-0.23591279	-0.48884893	0.06571469	-0.15937702	-0.73101085	-0.33592911	0.09511835	-0.34090478	-0.12112875	1.83591708	-0.00263344	-0.18314471	0.64268050	-0.92101071	-0.67343098	0.84128266	1.05855247	3.97595009	-0.57627828	-0.02097291	-0.03312377	0.04192257
6659	66.58000000	-0.42284834	-0.07757815	-0.22151120	-0.41327481	0.02036861	-0.02789645	-0.83280065	-0.19236438	0.73807535	-0.15440530	-0.11369325	1.71182723	0.29441918	-0.18444789	0.62275395	-0.79968358	-0.70403749	0.82685283	0.90674431	3.76467102	-0.48143225	-0.01120686	-0.04302942	0.05832255
6660	66.59000000	-0.43357493	-0.07334323	-0.20356872	-0.35251317	-0.00987380	0.10490622	-0.67869957	0.11135056	1.47774693	0.03996086	-0.08518834	1.63865825	0.40315491	-0.16384838	0.60977397	-0.55122791	-0.69328997	0.80373919	0.40255367	3.57132817	-0.24139360	-0.00182154	-0.05119403	0.07140574
6661	66.60000000	-0.44597773	-0.06851580	-0.18844567	-0.30919828	-0.02333864	0.22963703	-0.32139943	0.33326909	2.11240722	0.25112633	-0.02982970	1.57114468	0.36755355	-0.14020929	0.60148104	-0.22501608	-0.66230786	0.80004899	0.04154423	3.55588335	0.06388640	0.00482882	-0.05312605	0.07721959
6662	66.61000000	-0.45496631	-0.06469184	-0.17615574	-0.27795398	-0.01740219	0.33678389	0.10099476	0.40609357	2.56337701	0.47285386	0.04385498	1.48406308	0.22551266	-0.12325321	0.59320316	0.11928818	-0.62336586	0.81244658	-0.04373398	3.71508269	0.38289309	0.00903749	-0.04962951	0.07635018
6663	66.62000000	-0.45179532	-0.06496753	-0.16182880	-0.24724001	0.01128764	0.41674606	0.38468199	0.39696397	2.84671472	0.68722841	0.11632235	1.36762395	0.01025888	-0.11566466	0.57841435	0.41411494	-0.58192923	0.81340089	-0.00016309	3.92005586	0.68600922	0.01313515	-0.04558373	0.07287653
6664	66.63000000	-0.43168187	-0.07108761	-0.14294460	-0.20850389	0.06238972	0.46287935	0.39740911	0.36654355	3.00224688	0.87599660	0.17007868	1.21988591	-0.23014992	-0.11774422	0.55467928	0.61305137	-0.54229773	0.78725409	0.04006277	4.07503888	0.95337181	0.01864017	-0.04432664	0.06980165
6665	66.64000000	-0.40189650	-0.08066645	-0.12433867	-0.16254221	0.12453303	0.47733158	0.22454342	0.34597474	3.13318380	1.02079251	0.19456247	1.06104780	-0.40322909	-0.12324665	0.53185944	0.73315565	-0.50582830	0.75547814	0.00975223	4.19224219	1.19242806	0.02450153	-0.04430460	0.06666426
6666	66.65000000	-0.37152251	-0.09063741	-0.11174482	-0.11192381	0.18443005	0.46402396	-0.01116796	0.35917246	3.34702207	1.10398669	0.18193093	0.91404416	-0.41494257	-0.12516464	0.52142015	0.80212423	-0.47319588	0.74471157	-0.13967966	4.30279458	1.41388826	0.02927286	-0.04315846	0.06248586
6667	66.66000000	-0.34342243	-0.09917037	-0.10398883	-0.05987227	0.23062965	0.42909058	-0.22969496	0.40357319	3.64004715	1.11928145	0.14584325	0.78149422	-0.27094385	-0.12319655	0.52480677	0.83124553	-0.44301110	0.75618426	-0.35823613	4.42219695	1.60173594	0.03270073	-0.04000860	0.05813245
6668	66.67000000	-0.31567027	-0.10538749	-0.09458047	-0.01011432	0.25309865	0.38036904	-0.38390247	0.45623300	3.92295417	1.06910258	0.11650062	0.65038176	-0.05362103	-0.12220069	0.53575246	0.81918080	-0.41229757	0.77156850	-0.52006905	4.55391560	1.71939177	0.03545002	-0.03511475	0.05588886
6669	66.68000000	-0.28658846	-0.10894054	-0.07934997	0.03470612	0.24752457	0.32580613	-0.44249528	0.49722455	4.13109842	0.95649852	0.11085868	0.51170441	0.16137747	-0.12440366	0.54938598	0.76918122	-0.38078846	0.77482387	-0.54654856	4.69553696	1.74485671	0.03821792	-0.02937206	0.05665630
6670	66.69000000	-0.25560355	-0.11098218	-0.06142892	0.07520115	0.22648515	0.27354282	-0.41873094	0.51714197	4.27965296	0.78570114	0.10525053	0.36958163	0.32429493	-0.12381772	0.56557256	0.69910180	-0.35638944	0.75820128	-0.50514793	4.82809573	1.70102768	0.04172748	-0.02547652	0.05711624
6671	66.70000000	-0.22238842	-0.11291896	-0.04509715	0.11225239	0.20507184	0.23140772	-0.33286622	0.51011710	4.39706009	0.56310135	0.07103145	0.23044418	0.39273716	-0.11343153	0.58474373	0.62774329	-0.34776233	0.71690017	-0.48505262	4.93109139	1.61846708	0.04661633	-0.02634797	0.05347987
6672	66.71000000	-0.18724697	-0.11580400	-0.03161696	0.14176689	0.18926276	0.20201852	-0.18663572	0.49410981	4.48949992	0.32412224	0.01745267	0.09900547	0.36284799	-0.09364227	0.60270234	0.54765733	-0.35227377	0.66730108	-0.49614352	5.00684151	1.51823434	0.05217268	-0.03327312	0.04659542
6673	66.72000000	-0.15096877	-0.12041771	-0.01992800	0.15582595	0.17802069	0.18398029	0.03245816	0.50540976	4.54602163	0.12651670	-0.01707443	-0.02134566	0.26044252	-0.07054962	0.61169233	0.43119939	-0.35859767	0.64207932	-0.48726904	5.07521800	1.41407124	0.05664674	-0.04628064	0.04087943
6674	66.73000000	-0.11416558	-0.12673571	-0.00924811	0.15127089	0.17026587	0.17421358	0.30241545	0.56349345	4.56396718	0.00309421	-0.00969511	-0.13062962	0.11823044	-0.04962179	0.60961117	0.26402410	-0.35821311	0.66038689	-0.42738437	5.14198975	1.31654948	0.05933412	-0.06422201	0.03916733
6675	66.74000000	-0.07688377	-0.13236307	0.00020059	0.13937957	0.16532830	0.16494017	0.49764167	0.63647734	4.56662926	-0.08915997	0.01399135	-0.23889595	-0.01285965	-0.03401478	0.61142735	0.07284729	-0.35159896	0.69994700	-0.34985547	5.16967768	1.22738045	0.06271604	-0.08254685	0.03932358
6676	66.75000000	-0.03910075	-0.13458587	0.00806095	0.13333812	0.16246663	0.14797179	0.48469790	0.68465244	4.58012078	-0.20379790	0.02170482	-0.35715922	-0.08074630	-0.02624072	0.63383257	-0.10873835	-0.34114825	0.73201148	-0.29673393	5.11574647	1.14659294	0.06978964	-0.09645127	0.03829769
6677	66.76000000	-0.00132645	-0.13247510	0.01473329	0.13494902	0.15873793	0.12198403	0.29935607	0.69330180	4.60096326	-0.34228019	0.01524471	-0.48312849	-0.06649922	-0.02557380	0.67207751	-0.25783420	-0.33299826	0.74561137	-0.26184760	4.98164610	1.07355088	0.08245907	-0.10674833	0.03310001
6678	66.77000000	0.03551946	-0.12647567	0.02120057	0.13725279	0.14950640	0.09093607	0.10761861	0.66694787	4.60290312	-0.46597850	0.02263588	-0.60427131	0.02328142	-0.02879566	0.70491475	-0.35978002	-0.33616535	0.74346364	-0.20191860	4.80268056	1.00711046	0.10178504	-0.11857367	0.02079002
6679	66.78000000	0.07076386	-0.11693574	0.02785791	0.13467470	0.13256611	0.05870443	0.04126123	0.61128411	4.56501366	-0.55009390	0.06055391	-0.70923547	0.16714375	-0.03266735	0.72034066	-0.40810499	-0.35539869	0.72797399	-0.09528118	4.60709119	0.95156992	0.12605019	-0.13528617	0.00139182
6680	66.79000000	0.10449755	-0.10381091	0.03330914	0.12642431	0.11306078	0.02851618	0.12040353	0.53401297	4.48393733	-0.61398463	0.10994648	-0.79095857	0.30145676	-0.03407922	0.73507968	-0.42004303	-0.38254784	0.69957707	0.01267530	4.39954567	0.92743700	0.14534694	-0.15463490	-0.01626519
6681	66.80000000	0.13684600	-0.08714738	0.03594787	0.11296717	0.09673750	0.00334660	0.34372800	0.44390839	4.35961520	-0.68078198	0.14653421	-0.84364189	0.35874656	-0.03028251	0.76943587	-0.41557102	-0.40746961	0.65897753	0.06843814	4.17990322	0.95875365	0.14900431	-0.17344533	-0.02217937
6682	66.81000000	0.16634024	-0.06943303	0.03597751	0.10032624	0.07803982	-0.01579998	0.69804291	0.36021922	4.19274146	-0.70791561	0.16666481	-0.86852756	0.33072352	-0.02357131	0.81780023	-0.39013221	-0.42588927	0.61637266	0.08244730	3.94128982	1.07760200	0.13758615	-0.19024252	-0.01316858
6683	66.82000000	0.19028431	-0.05503416	0.03499415	0.09879926	0.04271678	-0.02943601	1.16097231	0.31024714	3.98459032	-0.60228098	0.18255745	-0.87227413	0.25465632	-0.02011823	0.85462458	-0.32029512	-0.43804965	0.58926039	0.11434532	3.67164808	1.32222791	0.12030372	-0.20485970	0.00869811
6684	66.83000000	0.20658098	-0.04680877	0.03392443	0.11430903	-0.01446279	-0.03757573	1.65231776	0.30716747	3.73673283	-0.32659309	0.19721748	-0.85683982	0.16652901	-0.02163719	0.86539223	-0.19722398	-0.44438799	0.58633910	0.18748869	3.35872727	1.69698023	0.10497631	-0.21695958	0.03920228
6685	66.84000000	0.21500585	-0.04298947	0.03159926	0.13945190	-0.07126377	-0.03863698	1.92076789	0.32156460	3.45157793	-0.01329279	0.18505895	-0.80980218	0.09502621	-0.01629688	0.86988977	-0.05689565	-0.44557380	0.58960187	0.21365182	2.99009834	2.10501441	0.09462614	-0.22559824	0.06814003
6686	66.85000000	0.21565143	-0.04100248	0.02672225	0.16404401	-0.10213847	-0.03092095	1.70467689	0.31667839	3.12855757	0.18123445	0.11836340	-0.71761558	0.06702523	0.00907272	0.89274606	0.05723128	-0.44257066	0.57754057	0.09047129	2.55445341	2.43250429	0.09151739	-0.23015024	0.08450683
6687	66.86000000	0.20817073	-0.03900384	0.02188975	0.17316771	-0.10795653	-0.01539914	1.06113594	0.26367685	2.72024128	0.21185414	0.01659946	-0.58971136	0.10255427	0.05020176	0.93614707	0.11372008	-0.44009983	0.55013610	-0.18727738	2.05775403	2.59147129	0.09984278	-0.23643396	0.08187535
